# xmcd
#
# Track frame offsets:
#	150
#	21879
#	41208
#	61517
#	75783
#	102970
#	127348
#	147188
#	166816
#	184019
#	218238
#	234827
#
# Disc length: 3431 seconds
#
# Revision: 3
# Processed by: cddbd v1.5.2PL0 Copyright (c) Steve Scherf et al.
# Submitted via: audiograbber 1.83.01
#
DISCID=960d650c
DTITLE=B.B. King - One Kind Favor
DYEAR=2008
DGENRE=Blues
TTITLE0=See That My Grave Is Kept Clean
TTITLE1=I Get So Weary
TTITLE2=Get These Blues Off Me
TTITLE3=How Many More Years
TTITLE4=Waiting For Your Call
TTITLE5=My Love Is Down
TTITLE6=The World Gone Wrong
TTITLE7=Blues Before Sunrise
TTITLE8=Midnight Blues
TTITLE9=Backwater Blues
TTITLE10=Sitting On Top Of The World
TTITLE11=Tomorrow Night
EXTD=
EXTT0=
EXTT1=
EXTT2=
EXTT3=
EXTT4=
EXTT5=
EXTT6=
EXTT7=
EXTT8=
EXTT9=
EXTT10=
EXTT11=
PLAYORDER=
